<svg width="278" height="278" viewBox="0 0 278 278" fill="none" xmlns="http://www.w3.org/2000/svg">
<rect x="0.726562" y="0.763672" width="277" height="277" rx="138.5" fill="#E2EAF7"/>
<g clip-path="url(#clip0_871_407)">
<path d="M130.294 141.541C102.794 114.002 105.138 67.0491 135.564 36.6194C165.99 6.18974 212.943 3.84599 240.478 31.385C268.013 58.9241 265.634 105.877 235.244 136.307C204.853 166.737 157.83 169.084 130.294 141.541ZM122.677 86.346C122.019 91.5614 122.045 96.8405 122.755 102.049C123.47 107.431 124.957 112.681 127.169 117.639C132.521 129.697 142.156 139.341 154.208 144.705C159.168 146.9 164.417 148.373 169.794 149.08C175.002 149.79 180.28 149.817 185.494 149.158C190.868 148.546 196.144 147.26 201.197 145.33C206.689 143.279 211.91 140.563 216.744 137.244C224.409 131.986 231.032 125.35 236.275 117.674C239.609 112.85 242.326 107.627 244.361 102.127C246.248 97.0657 247.507 91.792 248.111 86.4241C248.769 81.2217 248.743 75.9556 248.033 70.76C247.314 65.3586 245.801 60.0932 243.54 55.135C240.906 49.2064 237.198 43.8162 232.603 39.2366C228.016 34.6423 222.63 30.9227 216.708 28.26C211.732 26.0654 206.473 24.5795 201.083 23.846C195.901 23.1363 190.648 23.11 185.458 23.7679C180.076 24.3528 174.788 25.6127 169.72 27.5179C159.847 31.2263 150.883 37.007 143.431 44.471C140.168 47.7333 137.212 51.2901 134.603 55.096C131.272 59.9212 128.556 65.144 126.521 70.6429C124.586 75.6952 123.294 80.971 122.677 86.346Z" fill="#9A1C20"/>
<path d="M77.8359 194.006L80.4531 196.662L75.2188 212.365L59.4766 196.662L75.2188 191.389L77.8359 194.006Z" fill="#DCE1EB"/>
<path d="M242.664 216.897L233.914 225.647L199.621 205.061L222.082 182.6L242.664 216.897Z" fill="#EEF2FA"/>
<path d="M248.055 211.506L242.664 216.897L222.082 182.6L236.219 168.42L247.937 211.389L248.055 211.506Z" fill="#CDD2E1"/>
<path d="M199.621 205.061L233.914 225.647L228.523 231.037L228.406 230.92L185.441 219.201L199.621 205.061Z" fill="#CDD2E1"/>
<path d="M242.664 216.897L248.055 211.506L248.172 211.389L255.594 218.811C256.889 220.109 257.916 221.649 258.616 223.343C259.316 225.038 259.675 226.854 259.674 228.688C259.672 230.521 259.309 232.337 258.605 234.03C257.902 235.723 256.872 237.262 255.574 238.557C254.276 239.852 252.736 240.879 251.041 241.579C249.347 242.279 247.531 242.638 245.697 242.637C243.864 242.635 242.048 242.272 240.355 241.568C238.662 240.865 237.123 239.835 235.828 238.537L228.426 231.154L228.543 231.037L233.934 225.647L242.664 216.897Z" fill="#B82126"/>
<path d="M59.4796 196.643L17.5001 238.627L33.2341 254.359L75.2136 212.375L59.4796 196.643Z" fill="#B82126"/>
<path d="M227.356 128.438C253.435 102.358 255.785 62.4239 232.604 39.2426C209.422 16.0613 169.488 18.411 143.409 44.4907C117.329 70.5704 114.979 110.504 138.161 133.686C161.342 156.867 201.276 154.517 227.356 128.438Z" fill="#FAFCFF"/>
<path d="M127.723 138.666C127.664 138.717 127.586 138.736 127.531 138.791L75.0625 191.26C74.9961 191.326 74.9727 191.42 74.9102 191.49L75.2188 191.389L77.8359 194.006L80.4531 196.662L80.3789 196.936C80.4453 196.877 80.5352 196.854 80.6016 196.787L133.055 144.314C133.109 144.26 133.129 144.186 133.18 144.127C132.215 143.268 131.227 142.467 130.293 141.541C129.359 140.615 128.574 139.627 127.723 138.666Z" fill="#7E8596"/>
<path d="M235.363 36.4082C210.703 11.7402 168.211 14.0918 140.644 41.6543C113.078 69.2168 110.734 111.705 135.402 136.389C141.01 141.907 147.658 146.256 154.961 149.185C162.263 152.114 170.074 153.564 177.941 153.451C197.6 153.203 216.36 145.18 230.121 131.139C257.675 103.576 260.031 61.0723 235.363 36.4082ZM227.359 128.361C201.281 154.443 161.343 156.791 138.168 133.611C114.992 110.432 117.332 70.4942 143.41 44.416C169.488 18.3379 209.425 15.9863 232.601 39.1699C255.777 62.3535 253.425 102.283 227.355 128.361H227.359Z" fill="#741213"/>
<path d="M247.957 84.4356H234.285V72.7168H247.957C248.029 72.7062 248.101 72.6919 248.172 72.6738C248.035 71.377 247.855 70.0918 247.637 68.8106H234.285V57.0918H244.051C244.133 57.0809 244.214 57.0639 244.293 57.041C243.766 55.7402 243.227 54.4473 242.598 53.1855H234.285V41.127C233.719 40.502 233.207 39.8457 232.602 39.2441C231.996 38.6426 231.344 38.127 230.719 37.5605H218.66V29.248C217.398 28.6191 216.105 28.0762 214.805 27.5527C214.782 27.6321 214.765 27.713 214.754 27.7949V37.5605H203.035V24.209C201.754 23.9902 200.469 23.8184 199.172 23.6738C199.154 23.7446 199.139 23.8164 199.129 23.8887V37.5605H187.41V23.8887C187.397 23.7844 187.376 23.6812 187.348 23.5801C186.066 23.6895 184.785 23.7988 183.504 23.9707V37.5605H171.785V26.8066C170.473 27.248 169.176 27.7676 167.879 28.291V37.5605H156.16V34.3301C154.84 35.1699 153.535 36.0488 152.254 36.9863V37.5605H151.5C150.031 38.6621 148.59 39.8105 147.184 41.041C147.516 41.3098 147.928 41.4596 148.355 41.4668H152.262V53.1855H140.543V51.2324C140.54 50.7873 140.383 50.357 140.098 50.0151C139.813 49.6731 139.418 49.4407 138.98 49.3574C138.152 50.3418 137.418 51.3691 136.637 52.3848V53.1855H136.027C135.176 54.347 134.363 55.5189 133.59 56.7012C133.904 56.9431 134.287 57.0798 134.684 57.0918H136.637V68.8106H127.254C126.77 70.0059 126.266 71.1934 125.852 72.4043C126.152 72.6021 126.503 72.7105 126.863 72.7168H136.629V84.4356H122.957H122.922C122.734 85.7051 122.629 86.9746 122.531 88.2441C122.669 88.2931 122.812 88.3258 122.957 88.3418H136.629V100.061H122.957C122.831 100.073 122.707 100.098 122.586 100.135C122.719 101.424 122.887 102.697 123.102 103.967H136.629V115.686H126.863C126.715 115.697 126.57 115.727 126.43 115.775C126.945 117.064 127.469 118.346 128.086 119.592H136.629V131.963C137.148 132.533 137.613 133.135 138.164 133.682C138.715 134.229 139.312 134.697 139.883 135.217H152.254V143.76C153.484 144.369 154.754 144.885 156.023 145.4C156.108 145.179 156.154 144.946 156.16 144.709V135.217H167.879V148.744C169.148 148.959 170.422 149.135 171.711 149.26C171.748 149.139 171.772 149.014 171.785 148.889V135.217H183.504V148.889C183.516 149.039 183.546 149.187 183.594 149.33C184.863 149.217 186.133 149.111 187.402 148.939V148.904V135.217H199.121V144.982C199.13 145.337 199.239 145.682 199.434 145.979C200.645 145.564 201.832 145.061 203.027 144.576V135.217H214.746V137.17C214.758 137.567 214.895 137.949 215.137 138.264C216.329 137.482 217.501 136.67 218.652 135.826V135.217H219.434C220.449 134.436 221.477 133.713 222.461 132.873C222.378 132.436 222.145 132.041 221.803 131.756C221.461 131.471 221.031 131.314 220.586 131.311H218.633V119.592H230.352V121.545C230.356 121.99 230.514 122.419 230.799 122.761C231.083 123.102 231.477 123.335 231.914 123.42C232.75 122.42 233.477 121.377 234.258 120.346V119.592H234.832C235.687 118.42 236.492 117.248 237.266 116.037C236.964 115.823 236.608 115.701 236.238 115.686H234.285V103.967H243.555C244.043 102.752 244.543 101.545 244.961 100.314C244.684 100.154 244.371 100.067 244.051 100.061H234.285V88.3418H247.859C248.047 87.0606 248.156 85.7793 248.25 84.4981C248.154 84.4701 248.056 84.4492 247.957 84.4356ZM152.254 131.311H140.535V119.592H152.254V131.311ZM152.254 115.686H140.535V103.967H152.254V115.686ZM152.254 100.061H140.535V88.3418H152.254V100.061ZM152.254 84.4356H140.535V72.7168H152.254V84.4356ZM152.254 68.8106H140.535V57.0918H152.254V68.8106ZM167.879 131.311H156.16V119.592H167.879V131.311ZM167.879 115.686H156.16V103.967H167.879V115.686ZM167.879 100.061H156.16V88.3418H167.879V100.061ZM167.879 84.4356H156.16V72.7168H167.879V84.4356ZM167.879 68.8106H156.16V57.0918H167.879V68.8106ZM167.879 53.1855H156.16V41.4668H167.879V53.1855ZM183.504 131.311H171.785V119.592H183.504V131.311ZM183.504 115.686H171.785V103.967H183.504V115.686ZM183.504 100.061H171.785V88.3418H183.504V100.061ZM183.504 84.4356H171.785V72.7168H183.504V84.4356ZM183.504 68.8106H171.785V57.0918H183.504V68.8106ZM183.504 53.1855H171.785V41.4668H183.504V53.1855ZM199.129 131.311H187.41V119.592H199.129V131.311ZM199.129 115.686H187.41V103.967H199.129V115.686ZM199.129 100.061H187.41V88.3418H199.129V100.061ZM199.129 84.4356H187.41V72.7168H199.129V84.4356ZM199.129 68.8106H187.41V57.0918H199.129V68.8106ZM199.129 53.1855H187.41V41.4668H199.129V53.1855ZM214.754 131.311H203.035V119.592H214.754V131.311ZM214.754 115.686H203.035V103.967H214.754V115.686ZM214.754 100.061H203.035V88.3418H214.754V100.061ZM214.754 84.4356H203.035V72.7168H214.754V84.4356ZM214.754 68.8106H203.035V57.0918H214.754V68.8106ZM214.754 53.1855H203.035V41.4668H214.754V53.1855ZM230.379 115.686H218.66V103.967H230.379V115.686ZM230.379 100.061H218.66V88.3418H230.379V100.061ZM230.379 84.4356H218.66V72.7168H230.379V84.4356ZM230.379 68.8106H218.66V57.0918H230.379V68.8106ZM230.379 53.1855H218.66V41.4668H230.379V53.1855Z" fill="#7E8596"/>
<path d="M77.8359 194.01L67.3398 204.506L75.2188 212.365L80.4531 196.662L77.8359 194.01Z" fill="#CDD2E1"/>
<path d="M38.6367 233.209C37.1717 234.674 35.1849 235.497 33.1133 235.497C31.0417 235.497 29.0549 234.674 27.5898 233.209L25.2461 230.865L17.4883 238.615L33.2305 254.358L75.2188 212.365L67.3398 204.506L38.6367 233.209Z" fill="#85181C"/>
<path d="M245.668 225.397L253.926 217.139L248.172 211.389L248.055 211.506L242.664 216.897L233.914 225.647L228.523 231.037L228.406 231.154L235.828 238.537C237.756 240.47 240.209 241.794 242.882 242.346C245.555 242.898 248.332 242.653 250.867 241.643L245.668 236.444C244.203 234.978 243.381 232.992 243.381 230.92C243.381 228.848 244.203 226.862 245.668 225.397Z" fill="#9A1C20"/>
<path d="M218.379 216.322L233.914 225.647L242.664 216.897L238.055 209.217C232.51 213.781 225.56 216.291 218.379 216.322Z" fill="#CDD2E1"/>
<path d="M245.43 202.197L240.445 207.182C239.684 207.901 238.886 208.58 238.055 209.217L242.664 216.897L248.055 211.506L247.957 211.389L245.43 202.197Z" fill="#9DA3B5"/>
<path d="M204.375 213.033L195.883 208.787L185.457 219.201L228.426 230.92L228.543 231.037L233.934 225.647L218.398 216.322C213.531 216.335 208.729 215.208 204.375 213.033Z" fill="#9DA3B5"/>
</g>
<defs>
<clipPath id="clip0_871_407">
<rect width="250" height="250" fill="white" transform="translate(13.582 8.26367)"/>
</clipPath>
</defs>
</svg>
