<svg width="278" height="278" viewBox="0 0 278 278" fill="none" xmlns="http://www.w3.org/2000/svg">
<rect x="0.726562" y="0.763672" width="277" height="277" rx="138.5" fill="#E2EAF7"/>
<path d="M61.1244 237.513C63.2586 240.144 64.3438 243.471 64.1707 246.853C63.9976 250.236 62.5785 253.435 60.1869 255.834V255.873C57.6156 258.425 54.1397 259.857 50.5169 259.857C46.8941 259.857 43.4182 258.425 40.847 255.873L21.5111 236.498C20.2362 235.231 19.2245 233.725 18.5341 232.066C17.8437 230.406 17.4883 228.627 17.4883 226.83C17.4883 225.033 17.8437 223.253 18.5341 221.594C19.2245 219.935 20.2362 218.428 21.5111 217.162C23.9096 214.77 27.1086 213.351 30.4914 213.178C33.8741 213.005 37.2012 214.09 39.8314 216.224L40.3392 216.693L60.6517 237.006L61.1244 237.513Z" fill="#EEF2FA"/>
<path d="M249.453 27.904C252.928 31.3769 255.629 35.5446 257.381 40.1342C259.133 44.7238 259.896 49.6317 259.619 54.5364C259.343 59.4412 258.033 64.2323 255.776 68.5958C253.519 72.9593 250.366 76.7968 246.523 79.8571L108.859 192.904C104.055 196.732 99.4063 200.717 94.875 204.935L94.7188 204.74L72.6094 182.631L72.4141 182.474C76.6328 177.943 80.6172 173.295 84.4453 168.49L197.496 30.8337C200.554 26.9876 204.391 23.8315 208.755 21.5726C213.118 19.3136 217.91 18.0028 222.816 17.7262C227.722 17.4495 232.631 18.2133 237.221 19.9673C241.811 21.7214 245.978 24.4261 249.449 27.904H249.453Z" fill="#EEF2FA"/>
<path d="M61.5504 193.686L50.4961 204.74L72.6066 226.851L83.6609 215.797L61.5504 193.686Z" fill="#EEF2FA"/>
<path d="M72.6094 226.85L61.5547 237.904L61.125 237.514L60.6563 237.006C60.5 236.85 60.3438 236.654 60.1875 236.498L40.8477 217.162C40.6914 217.006 40.4961 216.85 40.3398 216.693L39.832 216.225L39.4414 215.795L50.4961 204.74L72.6094 226.85Z" fill="#B82126"/>
<path d="M94.7187 204.74L94.875 204.936C92.2578 207.279 89.6797 209.74 87.1797 212.24L83.6641 215.795L61.5547 193.686L65.1094 190.17C67.6094 187.67 70.0703 185.092 72.4141 182.475L72.6094 182.631L94.7187 204.74Z" fill="#B82126"/>
<path d="M48.9329 248.06L29.597 228.685C27.7149 226.825 26.4189 224.454 25.8691 221.865C25.3193 219.277 25.5398 216.584 26.5033 214.119C24.7334 214.789 23.1253 215.826 21.7845 217.162C20.5097 218.428 19.4979 219.935 18.8075 221.594C18.1171 223.253 17.7617 225.033 17.7617 226.83C17.7617 228.627 18.1171 230.406 18.8075 232.066C19.4979 233.725 20.5097 235.231 21.7845 236.498L41.1204 255.873C43.691 258.425 47.1663 259.857 50.7884 259.857C54.4106 259.857 57.8858 258.425 60.4564 255.873V255.834C61.7923 254.495 62.8294 252.888 63.4994 251.119C61.0348 252.067 58.3489 252.282 55.7647 251.74C53.1805 251.197 50.8081 249.919 48.9329 248.06Z" fill="#DCE1EB"/>
<path d="M249.727 27.9043C244.953 23.1255 238.891 19.8406 232.281 18.4512C232.895 18.9863 233.516 19.5098 234.102 20.0957C237.576 23.5686 240.278 27.7364 242.03 32.3262C243.782 36.916 244.545 41.8242 244.268 46.7291C243.991 51.6341 242.681 56.4252 240.423 60.7886C238.166 65.152 235.012 68.9892 231.168 72.0488L93.5078 185.092C90.1484 187.768 86.8672 190.561 83.6641 193.416L94.9922 204.744L95.1484 204.939C99.6836 200.721 104.332 196.736 109.137 192.908L246.785 79.8574C250.629 76.7984 253.784 72.9616 256.042 68.5985C258.3 64.2354 259.611 59.4445 259.889 54.5395C260.167 49.6345 259.405 44.7262 257.654 40.1361C255.902 35.546 253.201 31.3777 249.727 27.9043Z" fill="#DCE1EB"/>
<path d="M71.8242 204.428L68.3086 207.982L62.0586 214.787C61.8486 214.995 61.6269 215.191 61.3945 215.373L72.8789 226.85L83.9336 215.795L72.2148 204.076C72.082 204.189 71.9492 204.303 71.8242 204.428Z" fill="#DCE1EB"/>
<path d="M50.7852 215.029L45.6328 209.877L39.7148 215.795L40.1055 216.225L40.6133 216.693C40.7695 216.85 40.9648 217.006 41.1211 217.162L60.457 236.498C60.6133 236.654 60.7695 236.85 60.9258 237.006L61.3945 237.514L61.8242 237.904L72.8789 226.85L61.4023 215.373C59.918 216.671 57.9966 217.357 56.026 217.293C54.0554 217.23 52.1824 216.42 50.7852 215.029Z" fill="#85181C"/>
<path d="M83.6641 193.416C82.2812 194.646 80.8828 195.854 79.5195 197.123C77.0352 199.35 74.5898 201.693 72.207 204.068L83.9258 215.787L87.4414 212.232C89.9414 209.732 92.5195 207.271 95.1367 204.928L94.9805 204.732L83.6641 193.416Z" fill="#85181C"/>
<path d="M220.887 173.92L221.16 174.193C217.534 177.821 213.229 180.7 208.49 182.663C203.752 184.627 198.672 185.638 193.543 185.638C188.413 185.638 183.334 184.627 178.596 182.663C173.857 180.7 169.552 177.821 165.926 174.193L166.199 173.92C166.199 150.482 181.824 150.482 181.824 142.67C181.824 135.091 178.152 123.88 174.402 112.552C180.241 109.249 186.835 107.513 193.543 107.513C200.251 107.513 206.845 109.249 212.684 112.552C208.934 123.88 205.262 135.091 205.262 142.67C205.262 150.482 220.887 150.482 220.887 173.92Z" fill="#EEF2FA"/>
<path d="M212.684 112.553C217.939 115.504 222.44 119.632 225.833 124.613C229.226 129.595 231.42 135.295 232.241 141.266C233.062 147.238 232.489 153.318 230.566 159.031C228.644 164.744 225.424 169.933 221.16 174.193L220.887 173.92C220.887 150.482 205.262 150.482 205.262 142.67C205.262 135.092 208.934 123.881 212.684 112.553Z" fill="#E9EDF5"/>
<path d="M174.401 112.553C178.151 123.881 181.823 135.092 181.823 142.67C181.823 150.482 166.198 150.482 166.198 173.92L165.925 174.193C161.661 169.933 158.441 164.744 156.519 159.031C154.596 153.318 154.023 147.238 154.844 141.266C155.665 135.295 157.859 129.595 161.252 124.613C164.645 119.632 169.146 115.504 174.401 112.553Z" fill="#E9EDF5"/>
<path d="M177.703 110.951C176.582 111.451 175.465 111.951 174.402 112.553C173.155 113.266 171.949 114.049 170.789 114.896C174.082 124.857 177.645 135.861 177.645 142.67C177.645 143.643 176.609 144.643 174.246 146.689C170.658 149.418 167.718 152.905 165.635 156.902C163.553 160.899 162.379 165.307 162.199 169.811C163.333 171.36 164.579 172.825 165.926 174.193C166.801 175.068 167.712 175.902 168.66 176.693C169.029 176.332 169.323 175.9 169.524 175.424C169.725 174.948 169.83 174.437 169.832 173.92C169.832 160.846 174.91 156.463 179.359 152.596C181.07 151.521 182.51 150.066 183.567 148.345C184.625 146.624 185.272 144.682 185.457 142.67C185.457 134.35 181.582 122.646 177.754 111.1C177.734 111.049 177.723 111.002 177.703 110.951Z" fill="#9A1C20"/>
<path d="M212.293 146.689C209.949 144.643 208.895 143.643 208.895 142.67C208.895 135.748 212.578 124.479 215.84 114.611C214.809 113.893 213.781 113.17 212.684 112.553C211.463 111.877 210.207 111.267 208.922 110.725C208.867 110.885 208.801 111.072 208.703 111.326C204.957 122.646 201.082 134.35 201.082 142.67C201.268 144.682 201.914 146.624 202.972 148.345C204.029 150.066 205.469 151.521 207.18 152.596C211.629 156.463 216.707 160.846 216.707 173.92C216.712 174.491 216.845 175.055 217.096 175.568C217.347 176.082 217.709 176.533 218.156 176.889C219.202 176.041 220.205 175.142 221.16 174.193C222.317 173.02 223.397 171.774 224.395 170.463C224.299 165.845 223.161 161.308 221.065 157.191C218.97 153.074 215.971 149.484 212.293 146.689Z" fill="#9A1C20"/>
<path d="M154.207 48.9199H76.082C73.9247 48.9199 72.1758 50.6688 72.1758 52.8262C72.1758 54.9835 73.9247 56.7324 76.082 56.7324H154.207C156.364 56.7324 158.113 54.9835 158.113 52.8262C158.113 50.6688 156.364 48.9199 154.207 48.9199Z" fill="#9A1C20"/>
<path d="M119.051 87.9824H40.9258C38.7684 87.9824 37.0195 89.7313 37.0195 91.8887C37.0195 94.046 38.7684 95.7949 40.9258 95.7949H119.051C121.208 95.7949 122.957 94.046 122.957 91.8887C122.957 89.7313 121.208 87.9824 119.051 87.9824Z" fill="#9A1C20"/>
<path d="M138.582 68.4512H83.8945C81.7372 68.4512 79.9883 70.2001 79.9883 72.3574C79.9883 74.5148 81.7372 76.2637 83.8945 76.2637H138.582C140.739 76.2637 142.488 74.5148 142.488 72.3574C142.488 70.2001 140.739 68.4512 138.582 68.4512Z" fill="#9A1C20"/>
<path d="M68.2695 68.4512H64.3633C62.2059 68.4512 60.457 70.2001 60.457 72.3574C60.457 74.5148 62.2059 76.2637 64.3633 76.2637H68.2695C70.4269 76.2637 72.1758 74.5148 72.1758 72.3574C72.1758 70.2001 70.4269 68.4512 68.2695 68.4512Z" fill="#9A1C20"/>
<path d="M218.594 160.639C211.609 166.614 202.738 169.93 193.546 170.001C184.354 170.072 175.433 166.895 168.355 161.029C166.83 165.152 166.099 169.526 166.199 173.92L165.926 174.193C169.552 177.822 173.857 180.7 178.596 182.664C183.334 184.628 188.413 185.638 193.543 185.638C198.672 185.638 203.752 184.628 208.49 182.664C213.229 180.7 217.534 177.822 221.16 174.193L220.887 173.92C221.002 169.385 220.223 164.872 218.594 160.639Z" fill="#DCE1EB"/>
<path d="M231.625 138.256C229.959 146.984 225.361 154.881 218.594 160.639C220.223 164.872 221.002 169.385 220.887 173.92L221.16 174.193C225.831 169.598 229.246 163.881 231.078 157.589C232.91 151.297 233.099 144.641 231.625 138.256Z" fill="#DCE1EB"/>
<path d="M168.356 161.029C161.712 155.52 157.083 147.965 155.192 139.544C153.973 145.757 154.316 152.175 156.189 158.222C158.063 164.27 161.409 169.757 165.926 174.193L166.199 173.919C166.099 169.525 166.831 165.151 168.356 161.029Z" fill="#DCE1EB"/>
<path d="M165.145 158.006C163.476 161.736 162.483 165.733 162.211 169.811C163.341 171.36 164.583 172.824 165.926 174.193C166.801 175.068 167.712 175.902 168.66 176.693C169.029 176.332 169.323 175.9 169.524 175.424C169.725 174.948 169.83 174.437 169.832 173.92C169.755 170.325 170.284 166.742 171.395 163.322C169.132 161.773 167.037 159.991 165.145 158.006Z" fill="#85181C"/>
<path d="M215.145 163.322C216.256 166.742 216.784 170.325 216.707 173.92C216.712 174.491 216.845 175.054 217.096 175.568C217.347 176.082 217.709 176.533 218.156 176.889C219.202 176.041 220.205 175.142 221.16 174.193C222.317 173.02 223.397 171.774 224.395 170.463C224.183 166.156 223.175 161.926 221.422 157.986C219.521 159.979 217.417 161.768 215.145 163.322Z" fill="#85181C"/>
<path d="M179.359 152.596C181.07 151.521 182.51 150.066 183.567 148.345C184.625 146.624 185.272 144.682 185.457 142.67C185.457 134.35 181.582 122.646 177.754 111.1C177.754 111.049 177.723 111.002 177.703 110.951C176.582 111.451 175.465 111.951 174.402 112.553C173.155 113.266 171.949 114.049 170.789 114.896C174.082 124.857 177.645 135.861 177.645 142.67C177.645 143.643 176.609 144.643 174.246 146.689C170.388 149.725 167.272 153.599 165.133 158.018C167.025 160.003 169.12 161.784 171.383 163.334C172.951 159.061 175.721 155.331 179.359 152.596Z" fill="#B82126"/>
<path d="M221.422 157.986C219.278 153.575 216.156 149.712 212.293 146.689C209.949 144.643 208.895 143.643 208.895 142.67C208.895 135.748 212.578 124.479 215.84 114.611C214.809 113.893 213.781 113.17 212.684 112.553C211.463 111.877 210.207 111.267 208.922 110.725C208.867 110.885 208.801 111.072 208.703 111.326C204.957 122.646 201.082 134.35 201.082 142.67C201.268 144.682 201.914 146.624 202.972 148.345C204.029 150.066 205.469 151.521 207.18 152.596C210.812 155.33 213.578 159.055 215.145 163.322C217.417 161.768 219.521 159.979 221.422 157.986Z" fill="#B82126"/>
<path d="M174.402 112.553C174.855 112.299 175.344 112.107 175.805 111.869C170.256 111.051 164.596 111.437 159.21 113.002C153.823 114.566 148.837 117.272 144.59 120.936C140.343 124.599 136.935 129.135 134.597 134.233C132.26 139.332 131.047 144.874 131.043 150.482C131.043 151.709 131.117 152.92 131.227 154.115L157.008 132.936C160.224 124.304 166.384 117.086 174.402 112.553Z" fill="#DCE1EB"/>
<path d="M157.023 132.936L131.242 154.115C131.773 159.812 133.559 165.32 136.473 170.244L155.363 154.729C154.785 152.049 154.489 149.317 154.48 146.576C154.499 141.913 155.36 137.292 157.023 132.936Z" fill="#CDD2E1"/>
<path d="M221.788 42.3205C224.292 39.8147 223.494 34.9575 220.005 31.4714C216.517 27.9854 211.659 27.1907 209.155 29.6964C206.651 32.2021 207.449 37.0594 210.938 40.5454C214.426 44.0315 219.284 44.8262 221.788 42.3205Z" fill="#F6FAFD"/>
<path d="M210.821 54.8531C212.079 53.5941 211.679 51.1543 209.927 49.4037C208.175 47.653 205.735 47.2544 204.477 48.5134C203.219 49.7724 203.619 52.2121 205.371 53.9628C207.123 55.7134 209.563 56.112 210.821 54.8531Z" fill="#F6FAFD"/>
<path d="M191.294 121.261C192.552 120.002 192.152 117.562 190.4 115.811C188.648 114.061 186.208 113.662 184.95 114.921C183.692 116.18 184.092 118.62 185.844 120.371C187.596 122.121 190.036 122.52 191.294 121.261Z" fill="#F6FAFD"/>
<path d="M196.523 113.818C197.153 113.187 196.954 111.967 196.078 111.092C195.202 110.216 193.981 110.018 193.351 110.648C192.721 111.278 192.921 112.499 193.797 113.374C194.673 114.249 195.894 114.448 196.523 113.818Z" fill="#F6FAFD"/>
</svg>
