<svg width="278" height="278" viewBox="0 0 278 278" fill="none" xmlns="http://www.w3.org/2000/svg">
<rect x="0.726562" y="0.763672" width="277" height="277" rx="138.5" fill="#E2EAF7"/>
<path d="M111.239 99.7014V138.764C111.239 142.908 109.593 146.882 106.662 149.812C103.732 152.743 99.7579 154.389 95.6139 154.389C95.067 154.389 94.5592 154.35 94.0123 154.311C90.1652 153.914 86.6019 152.105 84.0115 149.234C81.4211 146.362 79.9878 142.631 79.9889 138.764V68.4514C79.9769 67.1321 80.1478 65.8175 80.4967 64.5451L80.1061 63.842C87.4452 59.826 95.2337 56.6922 103.309 54.5061L103.426 54.9358C105.805 56.2997 107.78 58.2683 109.152 60.6419C110.524 63.0155 111.244 65.7098 111.239 68.4514V99.7014Z" fill="#542B29"/>
<path d="M134.676 91.8887V111.42C134.668 114.936 134.236 118.438 133.387 121.85L111.238 99.7012V68.4512L134.676 91.8887Z" fill="#EEF2FA"/>
<path d="M79.9889 87.9826V111.42L60.7311 130.678C60.54 129.477 60.4486 128.262 60.4576 127.045V107.514L79.9889 87.9826Z" fill="#EEF2FA"/>
<path d="M60.7305 130.678C62.6445 143.686 75.0664 153.842 94.0117 154.311C94.5586 154.35 95.0664 154.389 95.6133 154.389C112.098 154.389 128.738 140.561 133.387 121.85C134.236 118.438 134.668 114.936 134.676 111.42V33.295C134.665 30.561 135.394 27.8751 136.785 25.5215C138.143 23.1352 140.109 21.1513 142.484 19.7721C144.858 18.3929 147.555 17.6676 150.301 17.67C152.353 17.6674 154.386 18.0698 156.283 18.8541C158.18 19.6384 159.904 20.7893 161.355 22.2407C162.806 23.6921 163.957 25.4156 164.742 27.3125C165.526 29.2094 165.928 31.2423 165.926 33.295C165.926 29.151 167.572 25.1767 170.502 22.2464C173.432 19.3162 177.407 17.67 181.551 17.67C185.695 17.67 189.669 19.3162 192.599 22.2464C195.53 25.1767 197.176 29.151 197.176 33.295C197.176 29.151 198.822 25.1767 201.752 22.2464C204.682 19.3162 208.657 17.67 212.801 17.67C216.945 17.67 220.919 19.3162 223.849 22.2464C226.78 25.1767 228.426 29.151 228.426 33.295C228.426 29.151 230.072 25.1767 233.002 22.2464C235.932 19.3162 239.907 17.67 244.051 17.67C248.195 17.67 252.169 19.3162 255.099 22.2464C258.03 25.1767 259.676 29.151 259.676 33.295V142.67C259.676 207.436 201.082 259.857 138.582 259.857C79.9883 259.857 17.4883 212.67 17.4883 154.389V66.4981C17.4869 62.2478 18.7461 58.0927 21.1068 54.5583C23.4674 51.0239 26.8233 48.2691 30.75 46.6424C34.6766 45.0157 38.9975 44.5902 43.166 45.4198C47.3345 46.2494 51.1633 48.2967 54.168 51.3028C54.27 51.3969 54.3616 51.5017 54.4414 51.6153C58.3051 55.6056 60.4628 60.9438 60.457 66.4981V127.045C60.448 128.261 60.5394 129.476 60.7305 130.678Z" fill="#974D4A"/>
<path d="M136.785 25.5215C135.394 27.875 134.665 30.561 134.676 33.2949V48.9199C124.099 50.026 113.617 51.8929 103.309 54.5058C95.2331 56.692 87.4447 59.8257 80.1055 63.8418C73.2914 67.5482 66.7278 71.6978 60.457 76.2637V66.498C60.4628 60.9437 58.3051 55.6055 54.4414 51.6152C78.4393 34.4283 107.268 25.2926 136.785 25.5215Z" fill="#61312F"/>
<path d="M134.676 48.9199V91.8887L111.238 68.4512C111.243 65.7095 110.523 63.0153 109.151 60.6417C107.779 58.2681 105.804 56.2995 103.426 54.9355L103.309 54.5059C113.617 51.8929 124.099 50.0261 134.676 48.9199Z" fill="#80413E"/>
<path d="M111.238 99.7011L133.387 121.85C128.738 140.561 112.098 154.389 95.6133 154.389C99.7573 154.389 103.732 152.742 106.662 149.812C109.592 146.882 111.238 142.908 111.238 138.764V99.7011Z" fill="#80413E"/>
<path d="M84.5586 149.818C87.1093 152.344 90.4425 153.928 94.0117 154.311C75.0664 153.842 62.6445 143.686 60.7305 130.678L79.9883 111.42V138.764C79.9957 142.907 81.6381 146.88 84.5586 149.818Z" fill="#80413E"/>
<path d="M80.1055 63.8418L80.4961 64.5449C80.1473 65.8173 79.9764 67.1319 79.9883 68.4512V87.9824L60.457 107.514V76.2637C66.7278 71.6978 73.2914 67.5483 80.1055 63.8418Z" fill="#80413E"/>
<path d="M255.105 22.2403C252.167 19.3198 248.194 17.6774 244.051 17.67V142.67C244.051 169.606 233.35 195.439 214.304 214.486C195.257 233.532 169.424 244.233 142.488 244.233H134.676C107.74 244.233 81.9069 233.532 62.8602 214.486C43.8136 195.439 33.1133 169.606 33.1133 142.67V72.3575C33.1133 70.2855 33.9364 68.2983 35.4015 66.8332C36.8666 65.3681 38.8538 64.545 40.9258 64.545C42.9978 64.545 44.9849 65.3681 46.4501 66.8332C47.9152 68.2983 48.7383 70.2855 48.7383 72.3575C48.7383 74.4295 49.5614 76.4166 51.0265 77.8818C52.4916 79.3469 54.4788 80.17 56.5508 80.17H60.457V66.4981C60.4628 60.9438 58.3051 55.6056 54.4414 51.6153C54.3616 51.5017 54.27 51.397 54.168 51.3028C51.1633 48.2967 47.3345 46.2494 43.166 45.4198C38.9975 44.5902 34.6766 45.0157 30.75 46.6424C26.8233 48.2691 23.4674 51.0239 21.1068 54.5583C18.7461 58.0927 17.4869 62.2479 17.4883 66.4981V154.389C17.4883 212.67 79.9883 259.858 138.582 259.858C201.082 259.858 259.676 207.436 259.676 142.67V33.295C259.668 29.1518 258.026 25.1791 255.105 22.2403Z" fill="#6E3835"/>
<path d="M165.927 34.174V111.42H173.74C175.812 111.42 177.799 110.597 179.264 109.132C180.729 107.667 181.552 105.68 181.552 103.608V33.2951C181.552 31.2231 182.375 29.236 183.84 27.7709C185.305 26.3057 187.293 25.4826 189.365 25.4826H195.005C194.345 24.3056 193.539 23.2163 192.607 22.2404C191.911 21.5583 191.155 20.9399 190.349 20.3928C190.083 20.2131 189.786 20.0881 189.509 19.924C188.951 19.5744 188.372 19.26 187.775 18.9826C187.419 18.8303 187.04 18.7326 186.673 18.592C186.108 18.3819 185.531 18.2033 184.947 18.0569C184.532 17.9631 184.103 17.9319 183.681 17.8733C183.105 17.7865 182.525 17.7317 181.943 17.7092C177.637 17.775 173.534 19.5452 170.532 22.6315C167.53 25.7179 165.874 29.8687 165.927 34.174Z" fill="#61312F"/>
<path d="M197.177 34.174V111.42H204.99C207.062 111.42 209.049 110.597 210.514 109.132C211.979 107.667 212.802 105.68 212.802 103.608V33.2951C212.802 31.2231 213.625 29.236 215.09 27.7709C216.555 26.3057 218.543 25.4826 220.615 25.4826H226.255C225.595 24.3056 224.789 23.2163 223.857 22.2404C223.161 21.5583 222.405 20.9399 221.599 20.3928C221.333 20.2131 221.036 20.0881 220.759 19.924C220.201 19.5744 219.622 19.26 219.025 18.9826C218.669 18.8303 218.29 18.7326 217.923 18.592C217.358 18.3819 216.781 18.2033 216.197 18.0569C215.782 17.9631 215.353 17.9319 214.931 17.8733C214.355 17.7865 213.775 17.7317 213.193 17.7092C208.887 17.775 204.784 19.5452 201.782 22.6315C198.78 25.7179 197.124 29.8687 197.177 34.174Z" fill="#61312F"/>
<path d="M228.427 34.174V111.42H236.24C238.312 111.42 240.299 110.597 241.764 109.132C243.229 107.667 244.052 105.68 244.052 103.608V33.2951C244.052 31.2231 244.875 29.236 246.34 27.7709C247.805 26.3057 249.793 25.4826 251.865 25.4826H257.505C256.845 24.3056 256.039 23.2163 255.107 22.2404C254.411 21.5583 253.655 20.9399 252.849 20.3928C252.583 20.2131 252.286 20.0881 252.009 19.924C251.451 19.5744 250.872 19.26 250.275 18.9826C249.919 18.8303 249.54 18.7326 249.173 18.592C248.608 18.3819 248.031 18.2033 247.447 18.0569C247.032 17.9631 246.603 17.9319 246.181 17.8733C245.605 17.7865 245.025 17.7317 244.443 17.7092C240.137 17.775 236.034 19.5452 233.032 22.6315C230.03 25.7179 228.374 29.8687 228.427 34.174Z" fill="#61312F"/>
<path d="M83.8945 162.201H103.426C115.858 162.201 127.781 157.263 136.571 148.472C145.362 139.681 150.301 127.758 150.301 115.326V45.0137C150.305 40.9685 151.88 37.0832 154.695 34.178C157.51 31.2728 161.344 29.5751 165.387 29.4433C164.563 26.0702 162.625 23.0735 159.888 20.9372C157.151 18.8008 153.773 17.6498 150.301 17.6699C147.555 17.6675 144.858 18.3928 142.484 19.7721C140.109 21.1513 138.143 23.1351 136.785 25.5215C135.394 27.875 134.665 30.561 134.676 33.2949V111.42C134.668 114.936 134.236 118.438 133.387 121.85C128.738 140.561 112.098 154.389 95.6133 154.389C95.0664 154.389 94.5586 154.35 94.0117 154.311C75.0664 153.842 62.6445 143.686 60.7305 130.678C60.5394 129.476 60.448 128.261 60.457 127.045V80.1699H56.5508C54.4788 80.1699 52.4916 79.3468 51.0265 77.8817C49.5614 76.4166 48.7383 74.4294 48.7383 72.3574V127.045C48.7383 131.662 49.6476 136.233 51.4144 140.499C53.1812 144.764 55.7707 148.64 59.0353 151.904C65.6284 158.497 74.5705 162.201 83.8945 162.201Z" fill="#80413E"/>
<path d="M124.613 26.0762L123.777 27.748C123.238 28.8276 122.957 30.0178 122.957 31.2246C122.938 33.8276 122.023 36.3446 120.366 38.3522C118.709 40.3598 116.411 41.7356 113.859 42.248C101.092 45.4191 88.608 49.6392 76.5352 54.8652C76.0349 55.073 75.4969 55.1744 74.9553 55.1631C74.4137 55.1518 73.8804 55.028 73.3893 54.7995C72.8981 54.571 72.4599 54.2428 72.1023 53.8359C71.7448 53.4289 71.4758 52.952 71.3125 52.4355C70.466 49.8961 69.4494 47.4165 68.2695 45.0137L66.3711 44.0645C62.3867 46.3535 58.4102 48.8457 54.4414 51.6152C58.3051 55.6055 60.4628 60.9437 60.457 66.4981V76.2637C66.7278 71.6978 73.2914 67.5483 80.1055 63.8418C87.4447 59.8258 95.2331 56.692 103.309 54.5059C113.617 51.8929 124.099 50.0261 134.676 48.9199V33.2949C134.665 30.561 135.394 27.875 136.785 25.5215C132.66 25.5605 128.603 25.7454 124.613 26.0762Z" fill="#472423"/>
<path d="M111.238 138.764V138.1C106.573 141.084 101.151 142.67 95.6133 142.67C90.0754 142.67 84.6533 141.084 79.9883 138.1V138.764C79.9872 142.631 81.4205 146.362 84.0109 149.234C86.6013 152.105 90.1646 153.914 94.0117 154.311C94.5586 154.35 95.0664 154.389 95.6133 154.389C99.7573 154.389 103.732 152.743 106.662 149.812C109.592 146.882 111.238 142.908 111.238 138.764Z" fill="#472423"/>
<path d="M122.957 111.42L133.387 121.85C134.236 118.438 134.668 114.936 134.676 111.42V91.8887L122.957 80.1699V111.42Z" fill="#BEC3D2"/>
<path d="M68.2701 117.28V99.7014L60.4576 107.514V127.045C60.4486 128.262 60.54 129.477 60.7311 130.678L68.8678 122.541C68.4724 120.815 68.2719 119.05 68.2701 117.28Z" fill="#BEC3D2"/>
<path d="M122.957 50.5176V80.1699L134.676 91.8887V48.9199C130.504 49.4355 126.633 49.959 122.957 50.5176Z" fill="#542B29"/>
<path d="M122.957 117.279C122.907 121.454 121.808 125.549 119.76 129.188C117.712 132.826 114.782 135.891 111.238 138.1V138.764C111.238 142.908 109.592 146.882 106.662 149.812C103.732 152.742 99.7573 154.389 95.6133 154.389C112.098 154.389 128.738 140.561 133.387 121.85L122.957 111.42V117.279Z" fill="#542B29"/>
<path d="M79.9883 138.764V138.1C74.3931 134.563 70.402 128.98 68.8672 122.541L60.7305 130.678C62.6445 143.686 75.0664 153.842 94.0117 154.311C90.1646 153.914 86.6013 152.105 84.0109 149.233C81.4205 146.362 79.9872 142.631 79.9883 138.764Z" fill="#542B29"/>
<path d="M68.2695 70.9277C65.75 72.5722 63.1914 74.3144 60.457 76.2636V107.514L68.2695 99.7011V70.9277Z" fill="#542B29"/>
<path d="M64.2266 215.791C45.1163 197.422 33.9733 172.29 33.1914 145.795C31.0649 143.807 28.2668 142.694 25.3559 142.679C22.445 142.664 19.6355 143.747 17.4883 145.713V154.389C17.4883 183.268 32.8438 209.412 55.457 228.451C58.223 227.794 60.6485 226.138 62.2673 223.801C63.8861 221.464 64.5839 218.611 64.2266 215.791Z" fill="#61312F"/>
<path d="M184.97 242.768C184.446 241.378 183.536 240.166 182.347 239.275C181.158 238.384 179.74 237.85 178.259 237.737C166.825 242.04 154.707 244.241 142.49 244.233H134.677C123.569 244.236 112.537 242.412 102.021 238.834C100.461 239.106 99.0223 239.848 97.8965 240.961C96.7706 242.074 96.0117 243.504 95.7215 245.06C95.4313 246.617 95.6235 248.224 96.2725 249.668C96.9216 251.112 97.9963 252.323 99.3528 253.139C101.548 253.881 103.755 254.576 105.993 255.205C117.382 258.129 129.08 259.672 140.837 259.799C155.412 259.459 169.798 256.433 183.275 250.873C184.288 249.817 184.985 248.497 185.285 247.064C185.584 245.63 185.475 244.142 184.97 242.768Z" fill="#61312F"/>
<path d="M251.863 142.67C248.934 142.682 246.116 143.798 243.973 145.795C243.267 170.165 233.784 193.461 217.27 211.396C217.73 213.837 218.969 216.062 220.799 217.74C222.63 219.418 224.955 220.458 227.426 220.705C247.069 200.535 258.532 173.796 259.598 145.662C257.475 143.748 254.722 142.683 251.863 142.67Z" fill="#61312F"/>
<path d="M95.9023 244.287C96.3145 242.898 97.1049 241.651 98.1852 240.685C99.2655 239.719 100.593 239.073 102.02 238.818C87.8793 234.011 74.9746 226.142 64.2266 215.771C64.5891 218.595 63.8937 221.453 62.2745 223.794C60.6552 226.135 58.2268 227.794 55.457 228.451C68.4364 239.323 83.3196 247.694 99.3516 253.139C97.8838 252.247 96.7505 250.897 96.127 249.297C95.5035 247.697 95.4246 245.936 95.9023 244.287Z" fill="#783D3A"/>
<path d="M217.27 211.377C206.505 223.092 193.144 232.121 178.258 237.736C179.728 237.847 181.137 238.373 182.319 239.254C183.502 240.136 184.409 241.335 184.935 242.713C185.461 244.09 185.584 245.589 185.29 247.034C184.996 248.479 184.296 249.811 183.273 250.873C199.949 244.027 214.991 233.736 227.414 220.674C224.943 220.427 222.618 219.387 220.788 217.709C218.957 216.031 217.719 213.805 217.258 211.365L217.27 211.377Z" fill="#783D3A"/>
<path d="M138.582 205.17C123.016 205.609 107.717 201.062 94.918 192.193C93.9244 191.467 93.116 190.516 92.5582 189.419C92.0004 188.321 91.7088 187.108 91.707 185.877C91.707 184.778 91.2704 183.724 90.4931 182.946C89.7159 182.169 88.6617 181.732 87.5625 181.732H76.082V185.639C76.082 202.475 103.426 220.795 137.098 220.795H140.066C173.738 220.795 201.082 202.475 201.082 185.639V181.732H189.602C188.502 181.732 187.448 182.169 186.671 182.946C185.894 183.724 185.457 184.778 185.457 185.877C185.455 187.108 185.164 188.321 184.606 189.419C184.048 190.516 183.24 191.467 182.246 192.193C169.447 201.062 154.148 205.609 138.582 205.17Z" fill="#783D3A"/>
<path d="M233.95 56.7325L239.001 51.6817C239.713 50.945 240.106 49.9583 240.098 48.934C240.089 47.9098 239.678 46.9301 238.954 46.2059C238.229 45.4816 237.25 45.0708 236.225 45.0619C235.201 45.053 234.214 45.4467 233.478 46.1583L228.427 51.209L223.376 46.1583C222.639 45.4467 221.653 45.053 220.628 45.0619C219.604 45.0708 218.625 45.4816 217.9 46.2059C217.176 46.9301 216.765 47.9098 216.756 48.934C216.747 49.9583 217.141 50.945 217.853 51.6817L222.903 56.7325L217.853 61.7833C217.48 62.1436 217.182 62.5746 216.977 63.0512C216.773 63.5278 216.665 64.0404 216.66 64.559C216.656 65.0777 216.755 65.5921 216.951 66.0721C217.147 66.5522 217.437 66.9884 217.804 67.3551C218.171 67.7219 218.607 68.0119 219.087 68.2083C219.567 68.4048 220.082 68.5036 220.6 68.4991C221.119 68.4946 221.632 68.3868 222.108 68.1821C222.585 67.9774 223.016 67.6798 223.376 67.3067L228.427 62.2559L233.478 67.3067C234.214 68.0183 235.201 68.412 236.225 68.4031C237.25 68.3942 238.229 67.9834 238.954 67.2591C239.678 66.5349 240.089 65.5551 240.098 64.5309C240.106 63.5067 239.713 62.52 239.001 61.7833L233.95 56.7325Z" fill="#CDD2E1"/>
<path d="M202.7 56.7325L207.751 51.6817C208.463 50.945 208.856 49.9583 208.848 48.934C208.839 47.9098 208.428 46.9301 207.704 46.2059C206.979 45.4816 206 45.0708 204.975 45.0619C203.951 45.053 202.964 45.4467 202.228 46.1583L197.177 51.209L192.126 46.1583C191.389 45.4467 190.403 45.053 189.378 45.0619C188.354 45.0708 187.375 45.4816 186.65 46.2059C185.926 46.9301 185.515 47.9098 185.506 48.934C185.497 49.9583 185.891 50.945 186.603 51.6817L191.653 56.7325L186.603 61.7833C186.23 62.1436 185.932 62.5746 185.727 63.0512C185.523 63.5278 185.415 64.0404 185.41 64.559C185.406 65.0777 185.505 65.5921 185.701 66.0721C185.897 66.5522 186.187 66.9884 186.554 67.3551C186.921 67.7219 187.357 68.0119 187.837 68.2083C188.317 68.4048 188.832 68.5036 189.35 68.4991C189.869 68.4946 190.382 68.3868 190.858 68.1821C191.335 67.9774 191.766 67.6798 192.126 67.3067L197.177 62.2559L202.228 67.3067C202.964 68.0183 203.951 68.412 204.975 68.4031C206 68.3942 206.979 67.9834 207.704 67.2591C208.428 66.5349 208.839 65.5551 208.848 64.5309C208.856 63.5067 208.463 62.52 207.751 61.7833L202.7 56.7325Z" fill="#CDD2E1"/>
<path d="M171.45 56.7325L176.501 51.6817C177.213 50.945 177.606 49.9583 177.598 48.934C177.589 47.9098 177.178 46.9301 176.454 46.2059C175.729 45.4816 174.75 45.0708 173.725 45.0619C172.701 45.053 171.714 45.4467 170.978 46.1583L165.927 51.209L160.876 46.1583C160.139 45.4467 159.153 45.053 158.128 45.0619C157.104 45.0708 156.125 45.4816 155.4 46.2059C154.676 46.9301 154.265 47.9098 154.256 48.934C154.247 49.9583 154.641 50.945 155.353 51.6817L160.403 56.7325L155.353 61.7833C154.98 62.1436 154.682 62.5746 154.477 63.0512C154.273 63.5278 154.165 64.0404 154.16 64.559C154.156 65.0777 154.255 65.5921 154.451 66.0721C154.647 66.5522 154.937 66.9884 155.304 67.3551C155.671 67.7219 156.107 68.0119 156.587 68.2083C157.067 68.4048 157.582 68.5036 158.1 68.4991C158.619 68.4946 159.132 68.3868 159.608 68.1821C160.085 67.9774 160.516 67.6798 160.876 67.3067L165.927 62.2559L170.978 67.3067C171.714 68.0183 172.701 68.412 173.725 68.4031C174.75 68.3942 175.729 67.9834 176.454 67.2591C177.178 66.5349 177.589 65.5551 177.598 64.5309C177.606 63.5067 177.213 62.52 176.501 61.7833L171.45 56.7325Z" fill="#CDD2E1"/>
<path d="M233.95 87.9825L239.001 82.9317C239.713 82.195 240.106 81.2083 240.098 80.184C240.089 79.1598 239.678 78.1801 238.954 77.4559C238.229 76.7316 237.25 76.3208 236.225 76.3119C235.201 76.303 234.214 76.6967 233.478 77.4083L228.427 82.4591L223.376 77.4083C222.639 76.6967 221.653 76.303 220.628 76.3119C219.604 76.3208 218.625 76.7316 217.9 77.4559C217.176 78.1801 216.765 79.1598 216.756 80.184C216.747 81.2083 217.141 82.195 217.853 82.9317L222.903 87.9825L217.853 93.0333C217.48 93.3936 217.182 93.8246 216.977 94.3012C216.773 94.7778 216.665 95.2904 216.66 95.8091C216.656 96.3277 216.755 96.8421 216.951 97.3222C217.147 97.8022 217.437 98.2384 217.804 98.6051C218.171 98.9719 218.607 99.262 219.087 99.4584C219.567 99.6548 220.082 99.7536 220.6 99.7491C221.119 99.7446 221.632 99.6368 222.108 99.4321C222.585 99.2274 223.016 98.9298 223.376 98.5567L228.427 93.5059L233.478 98.5567C234.214 99.2683 235.201 99.662 236.225 99.6531C237.25 99.6442 238.229 99.2334 238.954 98.5091C239.678 97.7849 240.089 96.8051 240.098 95.7809C240.106 94.7567 239.713 93.77 239.001 93.0333L233.95 87.9825Z" fill="#CDD2E1"/>
<path d="M202.7 87.9825L207.751 82.9317C208.463 82.195 208.856 81.2083 208.848 80.184C208.839 79.1598 208.428 78.1801 207.704 77.4559C206.979 76.7316 206 76.3208 204.975 76.3119C203.951 76.303 202.964 76.6967 202.228 77.4083L197.177 82.4591L192.126 77.4083C191.389 76.6967 190.403 76.303 189.378 76.3119C188.354 76.3208 187.375 76.7316 186.65 77.4559C185.926 78.1801 185.515 79.1598 185.506 80.184C185.497 81.2083 185.891 82.195 186.603 82.9317L191.653 87.9825L186.603 93.0333C186.23 93.3936 185.932 93.8246 185.727 94.3012C185.523 94.7778 185.415 95.2904 185.41 95.8091C185.406 96.3277 185.505 96.8421 185.701 97.3222C185.897 97.8022 186.187 98.2384 186.554 98.6051C186.921 98.9719 187.357 99.262 187.837 99.4584C188.317 99.6548 188.832 99.7536 189.35 99.7491C189.869 99.7446 190.382 99.6368 190.858 99.4321C191.335 99.2274 191.766 98.9298 192.126 98.5567L197.177 93.5059L202.228 98.5567C202.964 99.2683 203.951 99.662 204.975 99.6531C206 99.6442 206.979 99.2334 207.704 98.5091C208.428 97.7849 208.839 96.8051 208.848 95.7809C208.856 94.7567 208.463 93.77 207.751 93.0333L202.7 87.9825Z" fill="#CDD2E1"/>
<path d="M171.45 87.9825L176.501 82.9317C177.213 82.195 177.606 81.2083 177.598 80.184C177.589 79.1598 177.178 78.1801 176.454 77.4559C175.729 76.7316 174.75 76.3208 173.725 76.3119C172.701 76.303 171.714 76.6967 170.978 77.4083L165.927 82.4591L160.876 77.4083C160.139 76.6967 159.153 76.303 158.128 76.3119C157.104 76.3208 156.125 76.7316 155.4 77.4559C154.676 78.1801 154.265 79.1598 154.256 80.184C154.247 81.2083 154.641 82.195 155.353 82.9317L160.403 87.9825L155.353 93.0333C154.98 93.3936 154.682 93.8246 154.477 94.3012C154.273 94.7778 154.165 95.2904 154.16 95.8091C154.156 96.3277 154.255 96.8421 154.451 97.3222C154.647 97.8022 154.937 98.2384 155.304 98.6051C155.671 98.9719 156.107 99.262 156.587 99.4584C157.067 99.6548 157.582 99.7536 158.1 99.7491C158.619 99.7446 159.132 99.6368 159.608 99.4321C160.085 99.2274 160.516 98.9298 160.876 98.5567L165.927 93.5059L170.978 98.5567C171.714 99.2683 172.701 99.662 173.725 99.6531C174.75 99.6442 175.729 99.2334 176.454 98.5091C177.178 97.7849 177.589 96.8051 177.598 95.7809C177.606 94.7567 177.213 93.77 176.501 93.0333L171.45 87.9825Z" fill="#CDD2E1"/>
<path d="M233.51 132.163C236.014 129.658 235.216 124.8 231.728 121.314C228.239 117.828 223.382 117.034 220.878 119.539C218.374 122.045 219.172 126.902 222.66 130.388C226.149 133.874 231.007 134.669 233.51 132.163Z" fill="#F6FAFD"/>
<path d="M195.196 140.792C196.454 139.533 196.054 137.093 194.302 135.342C192.55 133.592 190.11 133.193 188.852 134.452C187.594 135.711 187.994 138.151 189.746 139.901C191.498 141.652 193.938 142.051 195.196 140.792Z" fill="#F6FAFD"/>
<path d="M184.805 129.441C185.434 128.811 185.235 127.59 184.359 126.715C183.483 125.84 182.262 125.641 181.633 126.271C181.003 126.901 181.202 128.122 182.078 128.997C182.954 129.873 184.175 130.071 184.805 129.441Z" fill="#F6FAFD"/>
<path d="M142.488 220.795C83.8945 220.795 33.1133 173.623 33.1133 115.326V142.67C33.1133 169.606 43.8136 195.439 62.8603 214.485C81.9069 233.532 107.74 244.232 134.676 244.232H142.488C169.424 244.232 195.257 233.532 214.304 214.485C233.35 195.439 244.051 169.606 244.051 142.67V115.326C244.051 173.623 189.363 220.795 142.488 220.795Z" fill="#80413E"/>
</svg>
