<svg width="278" height="278" viewBox="0 0 278 278" fill="none" xmlns="http://www.w3.org/2000/svg">
<rect x="0.726562" y="0.763672" width="277" height="277" rx="138.5" fill="#E2EAF7"/>
<path d="M167.605 109.74L181.551 123.686L170.379 134.857L162.293 126.771L150.574 115.053L142.488 106.967L153.66 95.7949L167.605 109.74Z" fill="#EEF2FA"/>
<path d="M150.027 139.037L158.113 147.123L146.941 158.295L138.855 150.209L127.137 138.49L119.051 130.404L130.223 119.232L138.309 127.318L150.027 139.037Z" fill="#EEF2FA"/>
<path d="M126.59 162.475L134.676 170.561L123.504 181.732L115.418 173.646L109.559 167.787L103.699 161.928L95.6133 153.842L106.785 142.67L114.871 150.756L126.59 162.475Z" fill="#EEF2FA"/>
<path d="M150.575 115.053L138.309 127.32L150.028 139.04L162.295 126.773L150.575 115.053Z" fill="#CDD2E1"/>
<path d="M127.138 138.488L114.871 150.754L126.591 162.474L138.857 150.207L127.138 138.488Z" fill="#CDD2E1"/>
<path d="M126.863 252.045L126.902 252.24C117.375 254.936 107.661 256.92 97.8398 258.178L58.5039 218.842L76.082 201.264L126.863 252.045Z" fill="#CDD2E1"/>
<path d="M76.082 201.264L58.5039 218.842L19.168 179.506C20.4254 169.685 22.41 159.971 25.1055 150.443L25.3008 150.482L76.082 201.264Z" fill="#EEF2FA"/>
<path d="M218.66 58.6855L257.996 98.0215C256.739 107.843 254.754 117.557 252.059 127.084L251.863 127.045L201.082 76.2637L218.66 58.6855Z" fill="#CDD2E1"/>
<path d="M218.66 58.6855L201.082 76.2637L150.301 25.4824L150.262 25.2871C159.789 22.5917 169.503 20.6071 179.324 19.3496L218.66 58.6855Z" fill="#EEF2FA"/>
<path d="M58.5039 218.842L97.8398 258.178C72.8898 261.483 47.544 260.159 23.0742 254.271L58.5039 218.842Z" fill="#80413E"/>
<path d="M58.5036 218.842L23.0739 254.271C17.1863 229.802 15.8621 204.456 19.1676 179.506L58.5036 218.842Z" fill="#974D4A"/>
<path d="M254.09 23.2559C259.977 47.7256 261.302 73.0714 257.996 98.0215L218.66 58.6855L254.09 23.2559Z" fill="#80413E"/>
<path d="M254.09 23.2559L218.66 58.6856L179.324 19.3496C204.274 16.0441 229.62 17.3683 254.09 23.2559Z" fill="#974D4A"/>
<path d="M170.379 134.857L181.551 123.686L167.605 109.74L201.082 76.2637L251.863 127.045L252.059 127.084C243.631 156.893 227.646 184.019 205.652 205.834C183.838 227.828 156.711 243.813 126.902 252.24L126.863 252.045L76.082 201.264L109.559 167.787L115.418 173.646L123.504 181.732L134.676 170.561L126.59 162.475L138.855 150.209L146.941 158.295L158.113 147.123L150.027 139.037L162.293 126.771L170.379 134.857Z" fill="#80413E"/>
<path d="M103.699 161.928L109.559 167.787L76.082 201.264L25.3008 150.482L25.1055 150.443C33.6501 120.685 49.6188 93.5861 71.5116 71.6932C93.4045 49.8004 120.503 33.8317 150.262 25.2871L150.301 25.4824L201.082 76.2637L167.605 109.74L153.66 95.7949L142.488 106.967L150.574 115.053L138.309 127.318L130.223 119.232L119.051 130.404L127.137 138.49L114.871 150.756L106.785 142.67L95.6133 153.842L103.699 161.928Z" fill="#974D4A"/>
<path d="M129.351 159.713L109.546 139.908C108.814 139.176 107.82 138.765 106.784 138.765C105.749 138.765 104.755 139.176 104.023 139.908L92.8507 151.08C92.1184 151.813 91.707 152.806 91.707 153.842C91.707 154.878 92.1184 155.871 92.8507 156.604L120.741 184.494C121.474 185.227 122.467 185.638 123.503 185.638C124.539 185.638 125.532 185.227 126.265 184.494L137.437 173.322C138.169 172.59 138.58 171.596 138.58 170.561C138.58 169.525 138.169 168.531 137.437 167.799L129.351 159.713ZM123.503 181.733L115.417 173.647L109.558 167.787L103.698 161.928L95.6124 153.842L106.784 142.67L114.87 150.756L126.589 162.475L134.675 170.561L123.503 181.733Z" fill="#572D2A"/>
<path d="M152.788 136.276L132.984 116.471C132.251 115.739 131.258 115.327 130.222 115.327C129.186 115.327 128.193 115.739 127.46 116.471L116.288 127.643C115.556 128.375 115.145 129.369 115.145 130.404C115.145 131.44 115.556 132.434 116.288 133.166L144.179 161.057C144.911 161.789 145.905 162.2 146.941 162.2C147.976 162.2 148.97 161.789 149.702 161.057L160.874 149.885C161.606 149.152 162.018 148.159 162.018 147.123C162.018 146.087 161.606 145.094 160.874 144.361L152.788 136.276ZM146.941 158.295L138.855 150.209L127.136 138.49L119.05 130.404L130.222 119.233L138.308 127.318L150.026 139.037L158.112 147.123L146.941 158.295Z" fill="#572D2A"/>
<path d="M184.312 120.924L156.421 93.0333C155.689 92.301 154.695 91.8896 153.659 91.8896C152.624 91.8896 151.63 92.301 150.898 93.0333L139.726 104.205C138.993 104.938 138.582 105.931 138.582 106.967C138.582 108.003 138.993 108.996 139.726 109.729L167.616 137.619C168.349 138.352 169.342 138.763 170.378 138.763C171.414 138.763 172.407 138.352 173.14 137.619L184.312 126.447C185.044 125.715 185.455 124.721 185.455 123.686C185.455 122.65 185.044 121.656 184.312 120.924ZM170.378 134.858L162.292 126.772L150.573 115.053L142.487 106.967L153.659 95.7951L167.605 109.74L181.55 123.686L170.378 134.858Z" fill="#572D2A"/>
<path d="M107.766 232.943L107.645 232.982C98.1173 235.678 88.4031 237.662 78.582 238.92L97.8398 258.178C107.661 256.92 117.375 254.936 126.902 252.24L126.863 252.045L107.766 232.943Z" fill="#AFB4C8"/>
<path d="M232.801 107.826L232.762 107.947L251.863 127.045L252.059 127.084C254.754 117.557 256.739 107.843 257.996 98.0215L238.738 78.7637C237.481 88.5847 235.496 98.2989 232.801 107.826Z" fill="#AFB4C8"/>
<path d="M37.2422 240.104L23.0742 254.271C47.544 260.159 72.8898 261.483 97.8398 258.178L78.582 238.92C64.8722 240.642 51.0282 241.039 37.2422 240.104Z" fill="#61312F"/>
<path d="M19.8594 238.229C20.6223 243.633 21.6957 248.99 23.0742 254.271L37.2422 240.104C30.6016 239.658 24.7461 238.967 19.8594 238.229Z" fill="#80413E"/>
<path d="M254.09 23.2559L239.922 37.4238C240.861 51.2094 240.468 65.0534 238.75 78.7637L258.008 98.0215C261.309 73.0707 259.981 47.7249 254.09 23.2559Z" fill="#61312F"/>
<path d="M254.09 23.2559C248.808 21.8774 243.452 20.804 238.047 20.041C238.789 24.9277 239.477 30.7832 239.922 37.4238L254.09 23.2559Z" fill="#80413E"/>
<path d="M232.762 107.947C224.328 137.709 208.357 164.792 186.395 186.576C164.61 208.539 137.528 224.509 107.766 232.943L126.863 252.045L126.902 252.24C156.711 243.813 183.838 227.828 205.652 205.834C227.646 184.019 243.631 156.893 252.059 127.084L251.863 127.045L232.762 107.947Z" fill="#61312F"/>
<path d="M46.5382 144.623C45.6012 144.623 44.6781 144.397 43.8463 143.966C43.0144 143.535 42.2981 142.91 41.7574 142.145C41.2168 141.38 40.8675 140.496 40.739 139.568C40.6105 138.64 40.7064 137.694 41.0187 136.811C54.5472 99.6046 81.3696 68.7232 116.316 50.1194C117.69 49.3942 119.297 49.2448 120.782 49.7041C122.267 50.1634 123.508 51.1938 124.234 52.5686C124.959 53.9434 125.108 55.5499 124.649 57.0348C124.189 58.5197 123.159 59.7614 121.784 60.4866C89.4346 77.7156 64.5984 106.299 52.0539 140.737C51.6472 141.874 50.899 142.858 49.9117 143.554C48.9243 144.249 47.7461 144.623 46.5382 144.623Z" fill="#D16B67"/>
<path d="M134.678 54.0412C133.309 54.0425 131.983 53.5645 130.929 52.6902C129.876 51.8158 129.162 50.6002 128.912 49.2544C128.661 47.9086 128.889 46.5176 129.557 45.3227C130.225 44.1278 131.291 43.2045 132.568 42.713C135.284 41.6714 137.981 40.7078 140.658 39.8224C142.134 39.3371 143.743 39.458 145.13 40.1587C146.517 40.8594 147.569 42.0825 148.055 43.5588C148.54 45.0351 148.419 46.6437 147.718 48.0308C147.018 49.4179 145.795 50.4699 144.318 50.9552C141.826 51.7756 139.316 52.6714 136.787 53.6427C136.115 53.9053 135.399 54.0404 134.678 54.0412Z" fill="#D16B67"/>
<path d="M159.292 69.6632C161.796 67.1575 160.998 62.3002 157.509 58.8142C154.021 55.3281 149.163 54.5334 146.659 57.0392C144.155 59.5449 144.953 64.4022 148.441 67.8882C151.93 71.3742 156.788 72.169 159.292 69.6632Z" fill="#F6FAFD"/>
<path d="M140.509 74.3833C141.767 73.1244 141.367 70.6846 139.615 68.934C137.863 67.1833 135.423 66.7847 134.165 68.0437C132.907 69.3027 133.307 71.7424 135.059 73.4931C136.811 75.2437 139.251 75.6423 140.509 74.3833Z" fill="#F6FAFD"/>
</svg>
