<svg width="278" height="278" viewBox="0 0 278 278" fill="none" xmlns="http://www.w3.org/2000/svg">
<rect x="0.726562" y="0.763672" width="277" height="277" rx="138.5" fill="#E2EAF7"/>
<g clip-path="url(#clip0_872_419)">
<path d="M138.582 259.857C205.46 259.857 259.676 205.642 259.676 138.764C259.676 71.8854 205.46 17.6699 138.582 17.6699C71.7038 17.6699 17.4883 71.8854 17.4883 138.764C17.4883 205.642 71.7038 259.857 138.582 259.857Z" fill="#EF680C"/>
<path d="M112.328 82.6543C125.242 54.9668 155.91 37.4746 195.406 35.6387C196.066 35.5999 196.704 35.392 197.259 35.0348C197.815 34.6777 198.269 34.1834 198.578 33.5996C195.232 31.6855 191.788 29.9303 188.246 28.334C147.719 32.0684 116.59 51.8965 103.91 82.3809C94.8672 82.2519 85.7266 82.5723 76.6602 83.3262C81.1215 63.4449 88.9676 44.4786 99.8555 27.2559C100.16 26.7613 100.348 26.2042 100.406 25.6265C100.465 25.0487 100.391 24.4652 100.191 23.9199C96.9063 25.0176 93.6836 26.2363 90.5312 27.5996C80.1501 45.0801 72.7088 64.146 68.5039 84.0371L67.8437 84.0996C62.0586 84.7363 56.3516 85.709 50.7539 86.8652C50.4961 85.4941 50.1797 84.1309 49.8047 82.8027C48.2653 77.226 45.7915 71.9507 42.4883 67.2012C42.2286 66.8486 41.9101 66.5434 41.5469 66.2988C39.9219 68.4707 38.3984 70.7168 36.918 72.998C39.2923 76.6685 41.0966 80.6775 42.2695 84.8887C42.6133 86.1191 42.8867 87.3613 43.1133 88.6191C37.3086 90.0684 31.6445 91.8105 26.1484 93.7793C25.0469 96.5137 24.0195 99.3301 23.1211 102.178C23.9736 102.49 24.9092 102.49 25.7617 102.178C31.6567 99.9461 37.6759 98.0575 43.7891 96.5215C43.7109 113.232 34.0234 130.346 17.5742 142.529C17.6641 145.396 17.8164 148.252 18.0977 151.068C18.7839 151.027 19.4463 150.801 20.0156 150.416C40.418 136.275 52.25 115.197 51.5859 94.6621C56.6328 93.5996 61.7773 92.709 66.9766 92.1074C61.8671 122.304 64.2532 153.293 73.9251 182.352C83.5969 211.41 100.258 237.648 122.445 258.76C125.82 259.209 129.23 259.541 132.688 259.713C132.735 259.134 132.65 258.551 132.439 258.01C132.227 257.468 131.896 256.982 131.469 256.588C108.767 236.122 91.669 210.198 81.7949 181.272C71.9207 152.346 69.598 121.378 75.0469 91.3027C83.7578 90.5215 92.5039 90.1309 101.141 90.166C86.7109 140.104 126.285 200.037 192.066 225.99C199.355 228.857 206.823 231.245 214.422 233.139C216.674 231.316 218.861 229.425 220.98 227.467C220.472 226.868 219.789 226.442 219.027 226.248C210.819 224.332 202.763 221.818 194.922 218.725C131.988 193.889 94.2344 136.842 109.285 90.3262C170.613 92.4004 225.445 114.982 256.32 151.1C256.977 151.846 257.899 152.306 258.891 152.381C259.234 149.316 259.46 146.217 259.566 143.084C227.379 107.619 173.023 85.3184 112.328 82.6543Z" fill="#333940"/>
<path d="M56.5515 84.0764C56.544 70.3727 58.8662 56.7674 63.4187 43.842C48.7006 55.4959 36.8936 70.4121 28.9303 87.4127C20.967 104.413 17.0654 123.033 17.5338 141.8C18.0022 160.567 22.8276 178.969 31.629 195.551C40.4304 212.133 52.9668 226.442 68.2479 237.347C83.5289 248.252 101.136 255.455 119.679 258.387C138.222 261.319 157.193 259.899 175.093 254.24C192.993 248.581 209.332 238.837 222.819 225.779C236.307 212.721 246.574 196.706 252.809 178.998C234.972 193.137 213.51 201.961 190.885 204.457C168.261 206.953 145.391 203.02 124.9 193.11C104.41 183.199 87.128 167.712 75.0386 148.427C62.9492 129.141 56.5417 106.838 56.5515 84.0764Z" fill="#8D3205"/>
<path d="M50.7539 86.8652C50.4961 85.4941 50.1797 84.1309 49.8047 82.8027C48.2653 77.226 45.7915 71.9507 42.4883 67.2012C42.2286 66.8486 41.9101 66.5434 41.5469 66.2988C39.9219 68.4707 38.3984 70.7168 36.918 72.998C39.2923 76.6685 41.0966 80.6775 42.2695 84.8887C42.6133 86.1191 42.8867 87.3613 43.1133 88.6191C37.3086 90.0684 31.6445 91.8105 26.1484 93.7793C25.0469 96.5137 24.0195 99.3301 23.1211 102.178C23.9736 102.49 24.9093 102.49 25.7617 102.178C31.6567 99.9461 37.6759 98.0576 43.7891 96.5215C43.7109 113.232 34.0234 130.346 17.5742 142.529C17.6641 145.396 17.8164 148.252 18.0977 151.068C18.7839 151.027 19.4463 150.801 20.0156 150.416C40.418 136.275 52.25 115.197 51.5859 94.6621C53.3594 94.291 55.1602 93.9707 56.9531 93.6504C56.75 91.0488 56.6211 88.4238 56.5859 85.7793C54.6406 86.127 52.6836 86.4668 50.7539 86.8652Z" fill="#23272B"/>
<path d="M122.449 258.756C125.824 259.205 129.234 259.537 132.691 259.709C132.739 259.13 132.654 258.547 132.443 258.006C132.231 257.464 131.9 256.978 131.473 256.584C99.7315 227.841 79.264 188.734 73.7383 146.271C70.0909 140.184 66.9877 133.787 64.4648 127.154C65.5792 176.975 86.4364 224.312 122.449 258.756Z" fill="#23272B"/>
<path d="M192.066 225.99C199.355 228.857 206.822 231.245 214.422 233.139C216.674 231.316 218.861 229.425 220.98 227.467C220.472 226.868 219.789 226.442 219.027 226.248C210.819 224.332 202.763 221.818 194.922 218.725C185.221 214.904 175.891 210.203 167.047 204.682C161.083 204.167 155.165 203.208 149.344 201.814C162.375 211.844 176.758 219.983 192.066 225.99Z" fill="#23272B"/>
<path d="M223.532 157.308C247.797 133.043 245.174 91.0799 217.674 63.58C190.174 36.08 148.211 33.4571 123.946 57.7215C99.6819 81.9858 102.305 123.949 129.805 151.449C157.305 178.949 199.268 181.572 223.532 157.308Z" fill="#F37B0B"/>
<path d="M112.328 82.6543C121.473 63.0488 139.551 48.5879 163.336 41.1465C148.435 41.3111 134.2 47.3477 123.723 57.9453C113.246 68.5429 107.373 82.8458 107.379 97.748C107.874 95.2401 108.51 92.7622 109.285 90.3262C159.719 92.0332 205.703 107.619 237.633 133.17C238.451 130.42 239.073 127.614 239.492 124.775C207.02 100.037 161.781 84.8223 112.328 82.6543Z" fill="#555A66"/>
<path d="M198.354 128.258C200.858 125.752 200.06 120.895 196.572 117.409C193.083 113.923 188.225 113.128 185.721 115.634C183.217 118.14 184.015 122.997 187.504 126.483C190.992 129.969 195.85 130.764 198.354 128.258Z" fill="#F6FAFD"/>
<path d="M160.04 136.883C161.298 135.624 160.898 133.184 159.146 131.434C157.394 129.683 154.954 129.284 153.696 130.543C152.438 131.802 152.838 134.242 154.59 135.993C156.342 137.743 158.782 138.142 160.04 136.883Z" fill="#F6FAFD"/>
<path d="M149.648 125.536C150.278 124.906 150.079 123.685 149.203 122.81C148.327 121.935 147.106 121.736 146.476 122.366C145.846 122.997 146.046 124.217 146.922 125.092C147.798 125.968 149.019 126.166 149.648 125.536Z" fill="#F6FAFD"/>
</g>
<defs>
<clipPath id="clip0_872_419">
<rect width="250" height="250" fill="white" transform="translate(13.582 13.7637)"/>
</clipPath>
</defs>
</svg>
