<svg width="278" height="278" viewBox="0 0 278 278" fill="none" xmlns="http://www.w3.org/2000/svg">
<rect x="0.726562" y="0.763672" width="277" height="277" rx="138.5" fill="#E2EAF7"/>
<g clip-path="url(#clip0_872_420)">
<path d="M173.74 173.92V185.99L152.021 200.795C150.97 201.202 149.839 201.354 148.718 201.238C147.598 201.123 146.521 200.743 145.575 200.131C144.589 199.516 143.784 198.651 143.243 197.622C142.701 196.594 142.443 195.44 142.495 194.279C142.546 193.118 142.906 191.992 143.537 191.016C144.167 190.04 145.046 189.249 146.083 188.725L173.74 173.92Z" fill="#E9EDF5"/>
<path d="M138.582 134.857C142.897 134.857 146.395 131.36 146.395 127.045C146.395 122.73 142.897 119.232 138.582 119.232C134.267 119.232 130.77 122.73 130.77 127.045C130.77 131.36 134.267 134.857 138.582 134.857Z" fill="#E9EDF5"/>
<path d="M257.723 182.865C257.724 183.411 257.631 183.953 257.449 184.467L251.863 201.264V206.459C251.866 208.289 251.226 210.061 250.055 211.468C248.884 212.874 247.257 213.825 245.457 214.154L208.895 220.795V209.076L216.707 189.545L251.082 178.1C251.33 177.994 251.594 177.928 251.863 177.904C252.132 177.84 252.408 177.813 252.684 177.826C254.019 177.829 255.299 178.361 256.243 179.305C257.188 180.25 257.72 181.53 257.723 182.865Z" fill="#E9EDF5"/>
<path d="M65.1836 88.8809L60.8477 84.5059C56.2104 90.4717 52.1554 96.8681 48.7383 103.607V127.045L60.457 130.639V113.295C60.5102 111.306 60.955 109.348 61.7661 107.531C62.5771 105.715 63.7385 104.076 65.1836 102.709C66.1546 101.838 66.9312 100.772 67.4628 99.5806C67.9945 98.3893 68.2692 97.0994 68.2692 95.7949C68.2692 94.4904 67.9945 93.2005 67.4628 92.0092C66.9312 90.818 66.1546 89.752 65.1836 88.8809Z" fill="#E9EDF5"/>
<path d="M111.238 130.951L87.5664 124.701L60.457 117.592V130.639L85.457 138.334L90.7695 139.975C96.1081 141.637 100.767 144.98 104.051 149.506C107.1 147.577 110.638 146.56 114.246 146.576H119.051L120.027 145.99L111.238 130.951Z" fill="#9A1C20"/>
<path d="M120.027 145.99L138.582 177.826L126.863 185.639L91.707 192.045V186.381C91.7155 183.762 92.3772 181.186 93.6323 178.888C94.8873 176.589 96.696 174.64 98.8945 173.217L102.527 170.912C105.204 168.244 106.873 164.73 107.251 160.97C107.628 157.209 106.691 153.434 104.598 150.287C104.402 150.014 104.246 149.74 104.051 149.506C107.1 147.577 110.638 146.56 114.246 146.576H119.051L120.027 145.99Z" fill="#9A1C20"/>
<path d="M144.518 211.029L126.861 201.107C121.783 198.139 121.861 190.561 126.861 185.639L177.643 154.389H236.236C253.307 154.389 258.463 145.404 259.479 143.178C259.074 149.922 257.934 156.602 256.08 163.1L251.861 177.826V177.904C251.592 177.928 251.329 177.994 251.08 178.1L216.705 189.545L157.174 212.084C155.112 212.826 152.915 213.116 150.731 212.934C148.547 212.752 146.428 212.102 144.518 211.029ZM145.572 200.131C146.518 200.743 147.595 201.123 148.715 201.238C149.836 201.354 150.967 201.202 152.018 200.795L173.736 185.99V173.92L146.08 188.725C145.043 189.249 144.164 190.04 143.534 191.016C142.903 191.992 142.543 193.118 142.492 194.279C142.44 195.44 142.698 196.594 143.239 197.622C143.781 198.651 144.586 199.516 145.572 200.131Z" fill="#85181C"/>
<path d="M216.707 189.545L208.895 209.076V216.889C192.645 216.889 176.395 228.178 167.957 235.053C163.783 238.474 158.549 240.338 153.152 240.326H146.395C114.012 240.326 91.707 218.529 91.707 201.264V192.045L126.863 185.639C121.863 190.561 121.785 198.139 126.863 201.107L144.52 211.029C146.43 212.102 148.549 212.752 150.733 212.934C152.917 213.116 155.114 212.826 157.176 212.084L216.707 189.545Z" fill="#9A1C20"/>
<path d="M87.5664 124.701L60.457 117.592V113.295C60.5102 111.306 60.955 109.348 61.7661 107.531C62.5771 105.715 63.7385 104.076 65.1836 102.709C66.1546 101.838 66.9312 100.772 67.4628 99.5806C67.9945 98.3893 68.2692 97.0994 68.2692 95.7949C68.2692 94.4904 67.9945 93.2005 67.4628 92.0092C66.9312 90.818 66.1546 89.752 65.1836 88.8809L60.8477 84.5059C75.7695 64.8965 104.91 37.2012 150.301 37.2012C210.77 37.2012 259.676 80.873 259.676 134.857V137.357C259.676 139.311 259.598 141.225 259.48 143.178C258.465 145.404 253.309 154.389 236.238 154.389H177.645L126.863 185.639L138.582 177.826L120.027 145.99L111.238 130.951L87.5664 124.701ZM146.395 127.045C146.395 125.5 145.936 123.989 145.078 122.705C144.219 121.42 142.999 120.418 141.572 119.827C140.144 119.236 138.573 119.081 137.058 119.383C135.542 119.684 134.15 120.428 133.058 121.521C131.965 122.613 131.221 124.005 130.92 125.521C130.618 127.036 130.773 128.607 131.364 130.035C131.956 131.462 132.957 132.682 134.242 133.541C135.526 134.399 137.037 134.857 138.582 134.857C140.652 134.851 142.636 134.026 144.099 132.562C145.563 131.099 146.388 129.115 146.395 127.045Z" fill="#9A1C20"/>
<path d="M173.74 173.92V185.99L152.021 200.795C150.97 201.202 149.839 201.354 148.718 201.238C147.598 201.123 146.521 200.743 145.575 200.131C144.589 199.516 143.784 198.651 143.243 197.622C142.701 196.594 142.443 195.44 142.495 194.279C142.546 193.118 142.906 191.992 143.537 191.016C144.167 190.04 145.046 189.249 146.083 188.725L173.74 173.92Z" fill="#CDD2E1"/>
<path d="M169.834 119.232C156.384 116.449 142.444 117.17 129.353 121.326C126.957 122.124 124.769 123.445 122.947 125.195C121.126 126.944 119.718 129.078 118.824 131.44C117.931 133.803 117.576 136.334 117.785 138.851C117.993 141.368 118.76 143.807 120.029 145.99L138.584 177.826L126.865 185.639L177.646 154.389H236.24C253.31 154.389 258.467 145.404 259.482 143.178C259.6 141.225 259.678 139.311 259.678 137.357V134.857C259.678 132.326 259.537 129.826 259.326 127.346C236.912 136.146 208.006 126.174 169.834 119.232ZM138.584 134.857C137.039 134.857 135.528 134.399 134.243 133.541C132.959 132.682 131.957 131.462 131.366 130.035C130.775 128.607 130.62 127.036 130.922 125.521C131.223 124.005 131.967 122.613 133.06 121.521C134.152 120.428 135.544 119.684 137.06 119.383C138.575 119.081 140.146 119.236 141.574 119.827C143.001 120.418 144.221 121.42 145.08 122.705C145.938 123.989 146.396 125.5 146.396 127.045C146.39 129.115 145.565 131.099 144.101 132.562C142.638 134.026 140.654 134.851 138.584 134.857Z" fill="#85181C"/>
<path d="M65.1836 88.8809L64.3633 88.0449C64.3278 89.3336 64.0376 90.6025 63.5093 91.7785C62.981 92.9544 62.2251 94.0141 61.2852 94.8965C59.8386 96.2629 58.6758 97.9013 57.8634 99.7178C57.051 101.534 56.605 103.493 56.5508 105.482V114.654C56.5507 115.599 56.329 116.531 55.9035 117.375C55.478 118.218 54.8606 118.95 54.1009 119.512C53.3411 120.074 52.4602 120.45 51.5289 120.61C50.5976 120.769 49.6418 120.708 48.7383 120.432V127.045L60.457 130.639V113.295C60.5102 111.306 60.955 109.348 61.7661 107.531C62.5771 105.715 63.7385 104.076 65.1836 102.709C66.1546 101.838 66.9312 100.772 67.4628 99.5806C67.9945 98.3893 68.2692 97.0994 68.2692 95.7949C68.2692 94.4904 67.9945 93.2005 67.4628 92.0092C66.9312 90.818 66.1546 89.752 65.1836 88.8809Z" fill="#CDD2E1"/>
<path d="M181.549 166.107H240.143C245.767 166.321 251.345 165.008 256.283 162.307C258.016 156.056 259.087 149.641 259.479 143.166C258.463 145.404 253.307 154.389 236.236 154.389H177.643L126.861 185.639C121.861 190.561 121.783 198.139 126.861 201.107L127.865 201.674C128.532 200.054 129.519 198.586 130.768 197.357L181.549 166.107Z" fill="#741213"/>
<path d="M149.99 192.631L173.74 179.916V173.92L146.083 188.725C145.046 189.249 144.167 190.04 143.537 191.016C142.906 191.992 142.546 193.118 142.495 194.279C142.443 195.44 142.701 196.594 143.243 197.622C143.784 198.651 144.589 199.516 145.575 200.131C145.98 200.384 146.409 200.595 146.857 200.76C146.567 200.037 146.411 199.268 146.396 198.49C146.396 197.277 146.732 196.088 147.366 195.053C148 194.019 148.908 193.181 149.99 192.631Z" fill="#333940"/>
<path d="M232.113 203.326L226.578 206.092C225.78 206.489 224.875 206.617 223.998 206.456C223.121 206.296 222.32 205.856 221.714 205.201C221.108 204.547 220.731 203.715 220.638 202.828C220.545 201.941 220.742 201.049 221.199 200.283L230.379 184.994L216.707 189.545L208.895 209.076V220.795L245.457 214.154C247.257 213.825 248.884 212.874 250.055 211.468C251.226 210.062 251.866 208.289 251.863 206.459V201.264H240.848C237.816 201.264 234.825 201.97 232.113 203.326Z" fill="#CDD2E1"/>
<path d="M94.9844 133.006L60.457 123.139V130.639L85.457 138.334L90.7695 139.975C96.1081 141.637 100.767 144.98 104.051 149.506C106.746 147.818 109.825 146.84 113 146.662C108.911 140.019 102.485 135.148 94.9844 133.006Z" fill="#741213"/>
<path d="M110.91 175.955C113.165 175.392 115.138 174.03 116.465 172.122C117.792 170.214 118.382 167.89 118.125 165.58L117.461 159.6C116.948 155.01 115.425 150.592 113 146.662C109.825 146.84 106.746 147.818 104.051 149.506C104.246 149.74 104.402 150.014 104.598 150.287C106.691 153.434 107.628 157.209 107.251 160.97C106.873 164.73 105.204 168.244 102.527 170.912L98.8945 173.217C96.696 174.64 94.8873 176.589 93.6323 178.888C92.3772 181.186 91.7155 183.762 91.707 186.381V192.045L103.426 189.908V185.541C103.426 183.338 104.163 181.197 105.519 179.46C106.875 177.724 108.773 176.49 110.91 175.955Z" fill="#741213"/>
<path d="M202.254 195.014L198.738 202.045C197.914 203.87 197.345 205.799 197.047 207.779C196.894 208.561 196.624 209.316 196.246 210.018C188.299 212.578 180.79 216.339 173.98 221.17L170.035 223.99C161.408 230.232 150.666 232.815 140.145 231.178C106.355 225.689 103.426 205.17 103.426 205.17V189.908L91.707 192.045V201.264C91.707 218.529 114.012 240.326 146.395 240.326H153.152C158.549 240.338 163.783 238.474 167.957 235.053C176.395 228.178 192.645 216.889 208.895 216.889V209.076L216.707 189.545L202.254 195.014Z" fill="#741213"/>
<path d="M138.582 52.8262C191.355 52.8262 235.27 86.0527 245.613 130.334C250.311 129.94 254.931 128.888 259.336 127.209C255.031 76.8184 207.934 37.2012 150.301 37.2012C104.91 37.2012 75.7695 64.8496 60.8477 84.4277L61.9258 85.5137C71.8817 75.2338 83.7912 67.0469 96.955 61.4336C110.119 55.8204 124.272 52.8939 138.582 52.8262Z" fill="#B82126"/>
<path d="M244.363 178.725L243.852 180.506L251.082 178.1C251.33 177.994 251.594 177.928 251.863 177.904V177.826L256.082 163.1C256.156 162.838 256.211 162.568 256.285 162.318C253.433 163.913 250.319 164.985 247.09 165.486C246.499 169.959 245.588 174.383 244.363 178.725Z" fill="#9A1C20"/>
<path d="M247.957 152.596V152.986C247.957 154.939 247.879 156.854 247.762 158.807C247.633 161.041 247.371 163.264 247.09 165.479C250.319 164.978 253.433 163.905 256.285 162.311C257.133 159.186 257.848 156.061 258.375 152.881C258.414 152.631 258.441 152.381 258.48 152.135C258.695 150.791 258.898 149.443 259.051 148.092C259.238 146.462 259.38 144.829 259.477 143.193C258.286 145.454 256.653 147.451 254.674 149.067C252.694 150.682 250.41 151.882 247.957 152.596Z" fill="#85181C"/>
<path d="M259.324 127.346C254.936 129.023 250.334 130.075 245.652 130.471C247.182 137.031 247.955 143.746 247.957 150.482V152.596C250.412 151.881 252.698 150.679 254.678 149.06C256.658 147.442 258.291 145.441 259.48 143.178C259.598 141.225 259.676 139.311 259.676 137.357V134.857C259.676 132.326 259.535 129.826 259.324 127.346Z" fill="#9A1C20"/>
<path d="M138.582 115.326C136.264 115.326 133.999 116.013 132.071 117.301C130.144 118.589 128.642 120.419 127.755 122.56C126.868 124.702 126.636 127.058 127.088 129.331C127.541 131.604 128.657 133.692 130.296 135.331C131.935 136.97 134.023 138.086 136.296 138.538C138.569 138.991 140.925 138.759 143.067 137.872C145.208 136.985 147.038 135.483 148.326 133.556C149.613 131.628 150.301 129.363 150.301 127.045C150.301 123.937 149.066 120.956 146.868 118.759C144.671 116.561 141.69 115.326 138.582 115.326ZM138.582 134.857C137.037 134.857 135.526 134.399 134.242 133.541C132.957 132.682 131.956 131.462 131.364 130.035C130.773 128.607 130.618 127.036 130.92 125.521C131.221 124.005 131.965 122.613 133.058 121.521C134.15 120.428 135.542 119.684 137.058 119.383C138.573 119.081 140.144 119.236 141.572 119.827C142.999 120.418 144.219 121.42 145.078 122.705C145.936 123.989 146.395 125.5 146.395 127.045C146.388 129.115 145.563 131.099 144.099 132.562C142.636 134.026 140.652 134.851 138.582 134.857Z" fill="#741213"/>
<path d="M92.5391 108.56L72.1758 100.924C75.7628 90.1789 82.3459 80.683 91.1497 73.5547C99.9535 66.4264 110.611 61.9627 121.867 60.6894C123.196 60.5014 124.55 60.7077 125.763 61.2827C126.975 61.8577 127.992 62.776 128.688 63.9238L131.926 69.3183C132.446 70.176 132.769 71.1387 132.87 72.1366C132.972 73.1346 132.85 74.1426 132.513 75.0875C132.176 76.0323 131.634 76.8904 130.924 77.5992C130.214 78.3081 129.355 78.85 128.41 79.1855C122.269 81.1246 116.639 84.4145 111.935 88.8136C107.231 93.2126 103.572 98.6093 101.227 104.607C100.594 106.28 99.3258 107.635 97.698 108.375C96.0703 109.116 94.2157 109.183 92.5391 108.56Z" fill="#B82126"/>
<path d="M138.582 130.951C140.739 130.951 142.488 129.202 142.488 127.045C142.488 124.888 140.739 123.139 138.582 123.139C136.425 123.139 134.676 124.888 134.676 127.045C134.676 129.202 136.425 130.951 138.582 130.951Z" fill="#333940"/>
<path d="M115.145 205.17C117.302 205.17 119.051 203.421 119.051 201.264C119.051 199.106 117.302 197.357 115.145 197.357C112.987 197.357 111.238 199.106 111.238 201.264C111.238 203.421 112.987 205.17 115.145 205.17Z" fill="#E9EDF5"/>
<path d="M122.957 216.889C125.114 216.889 126.863 215.14 126.863 212.982C126.863 210.825 125.114 209.076 122.957 209.076C120.8 209.076 119.051 210.825 119.051 212.982C119.051 215.14 120.8 216.889 122.957 216.889Z" fill="#E9EDF5"/>
<path d="M138.582 224.701C140.739 224.701 142.488 222.952 142.488 220.795C142.488 218.638 140.739 216.889 138.582 216.889C136.425 216.889 134.676 218.638 134.676 220.795C134.676 222.952 136.425 224.701 138.582 224.701Z" fill="#E9EDF5"/>
<path d="M173.738 216.889C175.896 216.889 177.645 215.14 177.645 212.982C177.645 210.825 175.896 209.076 173.738 209.076C171.581 209.076 169.832 210.825 169.832 212.982C169.832 215.14 171.581 216.889 173.738 216.889Z" fill="#E9EDF5"/>
<path d="M141.957 175.873L114.613 128.998C114.092 128.105 113.238 127.454 112.238 127.189L60.457 113.545L48.7383 110.463L41.3164 108.51C41.1942 108.483 41.0863 108.412 41.0137 108.31C40.9411 108.208 40.909 108.083 40.9236 107.959C40.9382 107.834 40.9985 107.72 41.0928 107.638C41.187 107.556 41.3085 107.511 41.4336 107.514H48.7383V103.607C48.7383 103.607 49.4453 102.131 50.8086 99.7012H41.4336C39.414 99.7014 37.4635 100.436 35.9462 101.769C34.4289 103.102 33.4483 104.941 33.1877 106.944C32.927 108.947 33.404 110.976 34.5296 112.653C35.6552 114.33 37.3525 115.539 39.3047 116.057L48.7383 118.541L60.457 121.623L108.68 134.314L133.355 176.615L125.367 181.939L83.5469 189.545H76C54.9688 189.58 26.4141 189.611 20.8008 187.475C20.3512 186.755 19.6798 186.202 18.8879 185.898C18.096 185.594 17.2267 185.556 16.4114 185.79C15.5961 186.024 14.879 186.517 14.3686 187.194C13.8581 187.872 13.582 188.697 13.582 189.545C13.6091 190.097 13.7076 190.643 13.875 191.17C13.9238 191.316 13.9825 191.458 14.0508 191.596C16.3711 196.393 25.0938 197.357 71.1016 197.357H83.8945C84.1264 197.358 84.3579 197.337 84.5859 197.295L127.555 189.482C128.079 189.386 128.579 189.184 129.023 188.889L140.742 181.076C141.568 180.525 142.153 179.681 142.378 178.715C142.604 177.748 142.453 176.732 141.957 175.873Z" fill="#CDD2E1"/>
<path d="M17.4883 185.639C18.1508 185.639 18.8024 185.807 19.3819 186.128C19.9614 186.45 20.4496 186.913 20.8008 187.475C20.9609 187.537 21.1914 187.588 21.3945 187.646V180.404C21.3957 179.965 21.4669 179.528 21.6055 179.111C21.8353 178.463 22.2299 177.886 22.7505 177.437C23.271 176.988 23.8995 176.682 24.5742 176.549L77.1445 166.709L78.4062 158.506L23.1094 168.873C21.0808 169.271 19.1918 170.193 17.6305 171.548C16.0693 172.903 14.8903 174.643 14.2109 176.596C13.7973 177.823 13.585 179.109 13.582 180.404L13.582 189.545C13.582 188.509 13.9936 187.515 14.7261 186.783C15.4587 186.05 16.4523 185.639 17.4883 185.639Z" fill="#AFB4C8"/>
<path d="M72.4297 197.357L68.7383 221.354L35.5352 227.377C34.8754 227.502 34.1942 227.449 33.5619 227.223C32.9295 226.997 32.3688 226.606 31.9375 226.092C31.5365 225.659 31.248 225.135 31.0977 224.564L23.2617 195.912C17.2891 195.041 15.0625 193.682 14.0508 191.592C13.9825 191.454 13.9238 191.312 13.875 191.166C13.8516 191.104 13.8359 190.998 13.8125 190.92L23.5781 226.568C24.0357 228.313 24.9081 229.921 26.1211 231.256C27.2056 232.507 28.5457 233.51 30.0511 234.199C31.5566 234.888 33.1922 235.245 34.8477 235.248C35.5485 235.25 36.2481 235.187 36.9375 235.061L72.875 228.537C73.6743 228.391 74.4083 228 74.9747 227.417C75.5412 226.835 75.9118 226.09 76.0352 225.287L80.3359 197.357H72.4297Z" fill="#BEC3D2"/>
<path d="M83.1641 127.596L78.4258 158.521L77.1641 166.705L73.6328 189.545H81.5508L90.7734 129.6L83.1641 127.596Z" fill="#BEC3D2"/>
<path d="M58.7109 209.486L30.793 223.443L31.0977 224.564C31.248 225.134 31.5365 225.657 31.9375 226.088C32.3683 226.603 32.929 226.994 33.5615 227.22C34.194 227.446 34.8754 227.499 35.5352 227.373L43.1758 225.986L62.1953 216.498C65.5085 214.528 68.3913 211.911 70.6719 208.803L72.4297 197.357H69.2187C66.5941 202.085 63.0159 206.215 58.7109 209.486Z" fill="#9DA3B5"/>
<path d="M113.555 142.67H112.504C108.536 142.704 104.64 143.729 101.17 145.652C97.6996 147.575 94.7649 150.336 92.6328 153.682L84.8203 166.158C83.34 168.535 81.2778 170.496 78.8288 171.854C76.3797 173.212 73.6247 173.923 70.8242 173.92H16.1758C15.9427 173.945 15.7125 173.992 15.4883 174.061C14.9611 174.851 14.5321 175.702 14.2109 176.596C13.7973 177.823 13.585 179.109 13.582 180.404L13.582 180.701C14.2877 181.356 15.2128 181.724 16.1758 181.732H70.8242C74.9493 181.735 79.007 180.685 82.6137 178.683C86.2205 176.681 89.2574 173.793 91.4375 170.291L99.25 157.818C100.54 155.76 102.304 154.04 104.395 152.803C106.821 151.271 109.635 150.465 112.504 150.482H118.113L113.555 142.67Z" fill="#CDD2E1"/>
<path d="M225.694 81.3839C228.198 78.8782 227.4 74.0209 223.911 70.5349C220.423 67.0488 215.565 66.2541 213.061 68.7599C210.557 71.2656 211.355 76.1229 214.844 79.6089C218.332 83.095 223.19 83.8897 225.694 81.3839Z" fill="#F6FAFD"/>
<path d="M187.388 90.0089C188.646 88.75 188.246 86.3102 186.494 84.5596C184.742 82.8089 182.302 82.4103 181.044 83.6693C179.786 84.9283 180.186 87.368 181.938 89.1187C183.69 90.8693 186.13 91.2679 187.388 90.0089Z" fill="#F6FAFD"/>
<path d="M176.992 78.6621C177.622 78.0318 177.422 76.8113 176.546 75.936C175.67 75.0607 174.45 74.862 173.82 75.4923C173.19 76.1225 173.39 77.343 174.266 78.2183C175.142 79.0937 176.362 79.2923 176.992 78.6621Z" fill="#F6FAFD"/>
</g>
<defs>
<clipPath id="clip0_872_420">
<rect width="250" height="250" fill="white" transform="translate(13.582 13.7637)"/>
</clipPath>
</defs>
</svg>
